<svg width="92" height="32" viewBox="0 0 92 32" fill="none" xmlns="http://www.w3.org/2000/svg">
<path d="M20.8163 29.9437H20.2534C20.2534 29.9377 20.2506 29.9318 20.2495 29.9261L20.2341 29.8573C20.2242 29.812 20.2135 29.7671 20.2025 29.7226C20.1978 29.7016 20.1926 29.6806 20.1875 29.6597C20.1729 29.6009 20.1575 29.5422 20.1417 29.4834L20.137 29.4666C20.1196 29.4029 20.1014 29.3396 20.0825 29.2765L20.0635 29.2155C20.0505 29.172 20.0367 29.129 20.0241 29.086C20.0166 29.0624 20.0087 29.0392 20.0012 29.016C19.9874 28.9744 19.9731 28.9329 19.9585 28.8917C19.951 28.87 19.9431 28.8479 19.9356 28.8266C19.9172 28.775 19.8983 28.7237 19.8788 28.6728C19.8745 28.6619 19.8709 28.6515 19.8666 28.6406C19.8437 28.5807 19.8196 28.5212 19.7951 28.4617C19.7864 28.44 19.7773 28.4187 19.7683 28.3974C19.7517 28.3599 19.7351 28.3188 19.7181 28.2798L19.6862 28.2076C19.6696 28.1702 19.6526 28.1328 19.6352 28.0953C19.6246 28.0721 19.6135 28.0486 19.6025 28.0254C19.5823 27.9823 19.563 27.9397 19.5405 27.8974C19.5322 27.8813 19.5247 27.8648 19.5164 27.8483C19.4884 27.7926 19.4596 27.7361 19.4304 27.6822L19.3909 27.6122L19.3352 27.5108L19.2918 27.4359C19.2736 27.4045 19.2555 27.373 19.2369 27.3416C19.2223 27.3162 19.2073 27.2907 19.1923 27.2668C19.1718 27.2327 19.1529 27.1994 19.1304 27.1657L19.0735 27.0744C19.0467 27.0325 19.0198 26.9902 18.9922 26.9487C18.9748 26.9225 18.9575 26.8966 18.9397 26.8708C18.9219 26.845 18.9026 26.8154 18.8836 26.7881C18.8647 26.7608 18.8442 26.7335 18.8268 26.7065C18.8094 26.6796 18.7905 26.6553 18.7719 26.6317C18.7534 26.6081 18.7324 26.5767 18.7123 26.5493L18.6567 26.4745C18.6172 26.4247 18.5809 26.3749 18.5422 26.3248L18.4881 26.2563C18.4652 26.2275 18.4415 26.199 18.4182 26.1706L18.3661 26.1077C18.342 26.0789 18.3176 26.0505 18.2931 26.0217L18.2418 25.9625L18.1652 25.8757L18.1198 25.8256C18.0254 25.7219 17.9287 25.6197 17.8297 25.5202L17.7862 25.4764L17.6954 25.3877L17.6508 25.345C17.6192 25.3147 17.5877 25.2848 17.5557 25.2552L17.5229 25.2253C17.4112 25.1224 17.2963 25.0221 17.1795 24.9259L17.1475 24.8993C17.1115 24.8694 17.0752 24.8398 17.0386 24.8106L17.0023 24.7814C16.9628 24.7515 16.9269 24.7219 16.8886 24.6923L16.8692 24.6777C16.7401 24.5789 16.6079 24.4828 16.4745 24.3903L16.4559 24.3772C16.4137 24.3484 16.3714 24.32 16.3288 24.2919L16.3008 24.2736C16.2574 24.2447 16.2135 24.2167 16.1697 24.1886L16.1622 24.1841C16.017 24.0921 15.8689 24.0039 15.7181 23.9195L15.7122 23.9158C15.6645 23.8892 15.6167 23.8634 15.5689 23.8376L15.548 23.8263C15.2938 23.6904 15.0327 23.5656 14.7648 23.4521L14.7482 23.445C14.6776 23.415 14.6065 23.3862 14.5347 23.3578H15.9475C16.1776 23.3578 16.3643 23.1067 16.3643 22.7964C16.3643 22.4862 16.1776 22.2351 15.9475 22.2351H15.5267C15.5527 22.1722 15.5816 22.1011 15.6127 22.021C16.0106 21.786 16.7109 21.2852 17.4057 20.3653L17.4112 20.3582C17.4639 20.2894 17.5156 20.2181 17.5664 20.1445L17.5766 20.1299C17.6271 20.0577 17.6777 19.9832 17.7274 19.9054L17.7408 19.8848C17.7645 19.8474 17.7882 19.81 17.8119 19.7725C17.8119 19.7725 17.8119 19.7695 17.8147 19.7677C17.8391 19.7302 17.8632 19.6891 17.8873 19.649L17.9027 19.6232C17.9232 19.5888 17.9441 19.5536 17.9643 19.5181C17.9682 19.5117 17.9722 19.5053 17.9757 19.4986C17.999 19.4582 18.0223 19.417 18.0452 19.3755L18.061 19.3466C18.0799 19.3122 18.0985 19.2774 18.117 19.2422C18.1226 19.2325 18.1281 19.2224 18.1332 19.2123C18.1553 19.17 18.1774 19.1273 18.1995 19.0839L18.2149 19.0536C18.2323 19.0184 18.2501 18.9825 18.2674 18.9466L18.2864 18.9092C18.3077 18.865 18.3286 18.8201 18.3495 18.7748L18.3626 18.746C18.3799 18.7086 18.3969 18.6711 18.4139 18.6337L18.434 18.5888C18.4537 18.5435 18.4735 18.4979 18.4924 18.4518C18.496 18.4436 18.4995 18.435 18.5027 18.4268C18.5205 18.3845 18.5378 18.3414 18.5552 18.298L18.5749 18.2486C18.5911 18.2074 18.6073 18.1659 18.6231 18.1244L18.6349 18.0929C18.6535 18.0435 18.6716 17.993 18.6898 17.9432L18.7088 17.8901C18.723 17.8504 18.7368 17.81 18.7506 17.7696C18.7557 17.7546 18.7609 17.7396 18.7656 17.7247C18.783 17.673 18.8003 17.6203 18.8173 17.5675C18.8228 17.5492 18.8288 17.5301 18.8343 17.5128L18.8738 17.3897C18.8789 17.3718 18.8844 17.3523 18.8896 17.3362C18.9057 17.2819 18.9219 17.2266 18.9373 17.1708C18.9424 17.1532 18.9472 17.1352 18.9519 17.1173C18.9638 17.0742 18.9756 17.0312 18.9871 16.9874C18.9922 16.9676 18.9973 16.9477 19.0028 16.9279C19.0175 16.8703 19.0321 16.8123 19.0463 16.7535L19.0581 16.7045C19.0692 16.6577 19.0802 16.6105 19.0909 16.563L19.1051 16.4994C19.1185 16.4384 19.1319 16.3774 19.1446 16.3153C19.1473 16.3033 19.1497 16.2909 19.1521 16.2778C19.1631 16.2243 19.1738 16.1701 19.184 16.1158C19.1884 16.0937 19.1923 16.0716 19.1967 16.0496C19.2069 15.9938 19.2168 15.9373 19.2267 15.8815C19.2286 15.8695 19.231 15.8579 19.233 15.8463C19.244 15.7805 19.2548 15.7141 19.2654 15.6472C19.2689 15.6248 19.2725 15.6023 19.2756 15.5795C19.2839 15.5252 19.2918 15.4706 19.2997 15.4152L19.3068 15.3643C19.3163 15.2955 19.3254 15.2262 19.334 15.1559C19.3368 15.1338 19.3392 15.1117 19.3419 15.0892C19.3488 15.0334 19.3551 14.9772 19.3609 14.9208C19.3633 14.9006 19.3656 14.8808 19.3676 14.8606C19.3752 14.7882 19.3823 14.7153 19.3889 14.6417C19.3889 14.6211 19.3925 14.6005 19.394 14.5795C19.3992 14.5204 19.4043 14.4609 19.4086 14.401C19.4086 14.3789 19.4122 14.3569 19.4138 14.3348C19.4193 14.2584 19.4244 14.1816 19.4292 14.1042C19.4292 14.0867 19.4292 14.0668 19.4319 14.0511C19.4355 13.9867 19.439 13.922 19.4418 13.8569C19.4418 13.8333 19.4418 13.8097 19.445 13.7861C19.4481 13.7057 19.4513 13.6248 19.4537 13.5429C19.4537 13.5316 19.4537 13.52 19.4537 13.5084C19.4558 13.4356 19.4573 13.362 19.4584 13.2876C19.4584 13.2633 19.4584 13.239 19.4584 13.2147C19.4584 13.1348 19.4584 13.0545 19.4584 12.9737V12.9549C19.4584 12.8689 19.4584 12.7817 19.4584 12.693V12.6181C19.4584 12.5433 19.4552 12.4647 19.4533 12.3868V12.3445C19.4505 12.2547 19.4469 12.1638 19.4434 12.0725C19.4434 12.0489 19.441 12.0249 19.4402 12.0014C19.4368 11.9245 19.4329 11.8472 19.4284 11.7693C19.4284 11.7502 19.4284 11.7319 19.4252 11.7113C19.4197 11.6178 19.4136 11.5235 19.4071 11.4284L19.4023 11.3622C19.3964 11.2828 19.3905 11.2031 19.3838 11.1226C19.3838 11.0994 19.3802 11.0762 19.3783 11.053C19.37 10.9557 19.3609 10.8573 19.3514 10.7585C19.3514 10.7398 19.3475 10.7211 19.3459 10.702C19.3376 10.6178 19.3285 10.5328 19.3194 10.4471C19.3167 10.4213 19.3139 10.3959 19.3108 10.37C19.2997 10.2682 19.2879 10.1661 19.2752 10.0624C19.2752 10.0497 19.2717 10.037 19.2701 10.025C19.2588 9.93217 19.2468 9.83886 19.2342 9.74505C19.2302 9.71736 19.2267 9.68966 19.2227 9.66197C19.208 9.55569 19.1929 9.44852 19.1773 9.34049C17.5983 -1.31572 6.40876 0.413656 6.40876 0.413656L6.76719 2.70328L0 9.48083L0.295667 12.0979L2.85917 13.5949C2.97345 13.3195 3.12017 13.0573 3.29655 12.8131C4.95055 11.0044 8.15947 9.5845 9.07805 9.28997C9.26201 9.23121 9.36662 9.20165 9.36662 9.20165C4.97266 14.593 5.47241 20.7695 5.66821 22.2418C5.46452 22.2792 5.30701 22.5124 5.30701 22.7968C5.30701 23.1067 5.49373 23.3582 5.72387 23.3582H7.13668C4.78699 24.2906 2.92185 26.0665 1.94848 28.2982C1.94734 28.3012 1.94602 28.3042 1.94454 28.3072C1.87269 28.4728 1.80585 28.6409 1.74401 28.8113C1.74411 28.813 1.74411 28.8148 1.74401 28.8165C1.72743 28.8629 1.71124 28.9093 1.69545 28.9561C1.68953 28.9729 1.68361 28.9898 1.67808 29.007C1.66387 29.0489 1.65071 29.0912 1.63861 29.1339C1.6315 29.1556 1.62479 29.1777 1.61808 29.1994C1.60545 29.2394 1.59321 29.2798 1.58137 29.3202L1.56005 29.3951C1.549 29.4325 1.53795 29.4726 1.52768 29.5115C1.52018 29.5392 1.51308 29.5665 1.50597 29.5942C1.4965 29.6316 1.48663 29.669 1.47755 29.7065C1.46847 29.7439 1.45978 29.7813 1.4511 29.821C1.44241 29.8606 1.43136 29.9071 1.42189 29.9505H0.85858C0.750258 29.9482 0.642551 29.9665 0.541778 30.0042C0.441006 30.0419 0.3492 30.0984 0.271747 30.1702C0.194294 30.242 0.13275 30.3278 0.0907365 30.4225C0.0487226 30.5172 0.0270812 30.6189 0.0270812 30.7216C0.0270812 30.8243 0.0487226 30.926 0.0907365 31.0207C0.13275 31.1154 0.194294 31.2011 0.271747 31.273C0.3492 31.3448 0.441006 31.4012 0.541778 31.439C0.642551 31.4767 0.750258 31.495 0.85858 31.4927H20.8234C20.9318 31.495 21.0395 31.4767 21.1402 31.439C21.241 31.4012 21.3328 31.3448 21.4103 31.273C21.4877 31.2011 21.5493 31.1154 21.5913 31.0207C21.6333 30.926 21.6549 30.8243 21.6549 30.7216C21.6549 30.6189 21.6333 30.5172 21.5913 30.4225C21.5493 30.3278 21.4877 30.242 21.4103 30.1702C21.3328 30.0984 21.241 30.0419 21.1402 30.0042C21.0395 29.9665 20.9318 29.9482 20.8234 29.9505L20.8163 29.9437Z" fill="#595653"/>
<path d="M44.2035 29.9437H43.6406C43.6406 29.9377 43.6379 29.9318 43.6367 29.9261L43.6213 29.8573C43.6114 29.812 43.6007 29.7671 43.5897 29.7226C43.585 29.7016 43.5798 29.6806 43.5747 29.6597C43.5601 29.6009 43.5447 29.5422 43.5289 29.4834L43.5242 29.4666C43.5068 29.4029 43.4886 29.3396 43.4697 29.2765L43.4507 29.2155C43.4377 29.172 43.4239 29.129 43.4113 29.086C43.4038 29.0624 43.3959 29.0392 43.3884 29.016C43.3746 28.9744 43.3603 28.9329 43.3457 28.8917C43.3382 28.87 43.3303 28.8479 43.3228 28.8266C43.3044 28.775 43.2855 28.7237 43.266 28.6728C43.2617 28.6619 43.2581 28.6515 43.2538 28.6406C43.2309 28.5807 43.2068 28.5212 43.1823 28.4617C43.1736 28.44 43.1646 28.4187 43.1555 28.3974C43.1389 28.3599 43.1223 28.3188 43.1053 28.2798L43.0734 28.2076C43.0568 28.1702 43.0398 28.1328 43.0224 28.0953C43.0118 28.0721 43.0007 28.0486 42.9897 28.0254C42.9695 27.9823 42.9502 27.9397 42.9277 27.8974C42.9194 27.8813 42.9119 27.8648 42.9036 27.8483C42.8756 27.7926 42.8468 27.7361 42.8176 27.6822L42.7781 27.6122L42.7224 27.5108L42.679 27.4359C42.6608 27.4045 42.6427 27.373 42.6241 27.3416C42.6095 27.3162 42.5945 27.2907 42.5795 27.2668C42.559 27.2327 42.5401 27.1994 42.5176 27.1657L42.4607 27.0744C42.4339 27.0325 42.407 26.9902 42.3794 26.9487C42.362 26.9225 42.3447 26.8966 42.3269 26.8708C42.3091 26.845 42.2898 26.8154 42.2708 26.7881C42.2519 26.7608 42.2314 26.7335 42.214 26.7065C42.1966 26.6796 42.1777 26.6553 42.1591 26.6317C42.1406 26.6081 42.1196 26.5767 42.0995 26.5493L42.0439 26.4745C42.0044 26.4247 41.9681 26.3749 41.9294 26.3248L41.8753 26.2563C41.8524 26.2275 41.8287 26.199 41.8054 26.1706L41.7533 26.1077C41.7292 26.0789 41.7048 26.0505 41.6803 26.0217L41.629 25.9625L41.5524 25.8757L41.507 25.8256C41.4127 25.7219 41.3159 25.6197 41.2169 25.5202L41.1734 25.4764L41.0826 25.3877L41.038 25.345C41.0065 25.3147 40.9749 25.2848 40.9429 25.2552L40.9101 25.2253C40.7984 25.1224 40.6836 25.0221 40.5667 24.9259L40.5347 24.8993C40.4987 24.8694 40.4624 24.8398 40.4258 24.8106L40.3895 24.7814C40.35 24.7515 40.3141 24.7219 40.2758 24.6923L40.2564 24.6777C40.1273 24.5789 39.9951 24.4828 39.8617 24.3903L39.8431 24.3772C39.8009 24.3484 39.7587 24.32 39.716 24.2919L39.688 24.2736C39.6446 24.2447 39.6008 24.2167 39.5569 24.1886L39.5494 24.1841C39.4042 24.0921 39.2561 24.0039 39.1053 23.9195L39.0994 23.9158C39.0517 23.8892 39.0039 23.8634 38.9561 23.8376L38.9352 23.8263C38.681 23.6904 38.4199 23.5656 38.152 23.4521L38.1354 23.445C38.0648 23.415 37.9937 23.3862 37.9219 23.3578H39.3347C39.5648 23.3578 39.7515 23.1067 39.7515 22.7964C39.7515 22.4862 39.5648 22.2351 39.3347 22.2351H38.9139C38.9399 22.1722 38.9688 22.1011 38.9999 22.021C39.3979 21.786 40.0981 21.2852 40.7929 20.3653L40.7984 20.3582C40.8511 20.2894 40.9028 20.2181 40.9536 20.1445L40.9638 20.1299C41.0144 20.0577 41.0649 19.9832 41.1146 19.9054L41.128 19.8848C41.1517 19.8474 41.1754 19.81 41.1991 19.7725C41.1991 19.7725 41.1991 19.7695 41.2019 19.7677C41.2263 19.7302 41.2504 19.6891 41.2745 19.649L41.2899 19.6232C41.3104 19.5888 41.3313 19.5536 41.3515 19.5181C41.3554 19.5117 41.3594 19.5053 41.3629 19.4986C41.3862 19.4582 41.4095 19.417 41.4324 19.3755L41.4482 19.3466C41.4671 19.3122 41.4857 19.2774 41.5042 19.2422C41.5098 19.2325 41.5153 19.2224 41.5204 19.2123C41.5425 19.17 41.5646 19.1273 41.5867 19.0839L41.6021 19.0536C41.6195 19.0184 41.6373 18.9825 41.6546 18.9466L41.6736 18.9092C41.6949 18.865 41.7158 18.8201 41.7367 18.7748L41.7498 18.746C41.7671 18.7086 41.7841 18.6711 41.8011 18.6337L41.8212 18.5888C41.841 18.5435 41.8607 18.4979 41.8796 18.4518C41.8832 18.4436 41.8867 18.435 41.8899 18.4268C41.9077 18.3845 41.925 18.3414 41.9424 18.298L41.9621 18.2486C41.9783 18.2074 41.9945 18.1659 42.0103 18.1244L42.0221 18.0929C42.0407 18.0435 42.0589 17.993 42.077 17.9432L42.096 17.8901C42.1102 17.8504 42.124 17.81 42.1378 17.7696C42.1429 17.7546 42.1481 17.7396 42.1528 17.7247C42.1702 17.673 42.1875 17.6203 42.2045 17.5675C42.21 17.5492 42.216 17.5301 42.2215 17.5128L42.261 17.3897C42.2661 17.3718 42.2716 17.3523 42.2768 17.3362C42.2929 17.2819 42.3091 17.2266 42.3245 17.1708C42.3297 17.1532 42.3344 17.1352 42.3391 17.1173C42.351 17.0742 42.3628 17.0312 42.3743 16.9874C42.3794 16.9676 42.3845 16.9477 42.3901 16.9279C42.4047 16.8703 42.4193 16.8123 42.4335 16.7535L42.4453 16.7045C42.4564 16.6577 42.4674 16.6105 42.4781 16.563L42.4923 16.4994C42.5057 16.4384 42.5191 16.3774 42.5318 16.3153C42.5345 16.3033 42.5369 16.2909 42.5393 16.2778C42.5503 16.2243 42.561 16.1701 42.5712 16.1158C42.5756 16.0937 42.5795 16.0716 42.5839 16.0496C42.5941 15.9938 42.604 15.9373 42.6139 15.8815C42.6159 15.8695 42.6182 15.8579 42.6202 15.8463C42.6312 15.7805 42.642 15.7141 42.6526 15.6472C42.6561 15.6248 42.6597 15.6023 42.6628 15.5795C42.6711 15.5252 42.679 15.4706 42.6869 15.4152L42.694 15.3643C42.7035 15.2955 42.7126 15.2262 42.7212 15.1559C42.724 15.1338 42.7264 15.1117 42.7291 15.0892C42.736 15.0334 42.7423 14.9772 42.7481 14.9208C42.7505 14.9006 42.7528 14.8808 42.7548 14.8606C42.7624 14.7882 42.7695 14.7153 42.7761 14.6417C42.7761 14.6211 42.7797 14.6005 42.7813 14.5795C42.7864 14.5204 42.7915 14.4609 42.7959 14.401C42.7959 14.3789 42.7994 14.3569 42.801 14.3348C42.8065 14.2584 42.8116 14.1816 42.8164 14.1042C42.8164 14.0867 42.8164 14.0668 42.8191 14.0511C42.8227 13.9867 42.8263 13.922 42.829 13.8569C42.829 13.8333 42.829 13.8097 42.8322 13.7861C42.8353 13.7057 42.8385 13.6248 42.8409 13.5429C42.8409 13.5316 42.8409 13.52 42.8409 13.5084C42.843 13.4356 42.8445 13.362 42.8456 13.2876C42.8456 13.2633 42.8456 13.239 42.8456 13.2147C42.8456 13.1348 42.8456 13.0545 42.8456 12.9737V12.9549C42.8456 12.8689 42.8456 12.7817 42.8456 12.693V12.6181C42.8456 12.5433 42.8424 12.4647 42.8405 12.3868V12.3445C42.8377 12.2547 42.8341 12.1638 42.8306 12.0725C42.8306 12.0489 42.8282 12.0249 42.8274 12.0014C42.824 11.9245 42.8201 11.8472 42.8156 11.7693C42.8156 11.7502 42.8156 11.7319 42.8124 11.7113C42.8069 11.6178 42.8009 11.5235 42.7943 11.4284L42.7895 11.3622C42.7836 11.2828 42.7777 11.2031 42.771 11.1226C42.771 11.0994 42.7674 11.0762 42.7655 11.053C42.7572 10.9557 42.7481 10.8573 42.7386 10.7585C42.7386 10.7398 42.7347 10.7211 42.7331 10.702C42.7248 10.6178 42.7157 10.5328 42.7066 10.4471C42.7039 10.4213 42.7011 10.3959 42.698 10.37C42.6869 10.2682 42.6751 10.1661 42.6624 10.0624C42.6624 10.0497 42.6589 10.037 42.6573 10.025C42.646 9.93217 42.634 9.83886 42.6214 9.74505C42.6174 9.71736 42.6139 9.68966 42.6099 9.66197C42.5952 9.55569 42.5801 9.44852 42.5645 9.34049C40.9855 -1.31572 29.796 0.413656 29.796 0.413656L30.1544 2.70328L23.3872 9.48083L23.6829 12.0979L26.2464 13.5949C26.3607 13.3195 26.5074 13.0573 26.6838 12.8131C28.3378 11.0044 31.5467 9.5845 32.4653 9.28997C32.6492 9.23121 32.7538 9.20165 32.7538 9.20165C28.3599 14.593 28.8596 20.7695 29.0554 22.2418C28.8517 22.2792 28.6942 22.5124 28.6942 22.7968C28.6942 23.1067 28.8809 23.3582 29.1111 23.3582H30.5239C28.1742 24.2906 26.3091 26.0665 25.3357 28.2982C25.3345 28.3012 25.3332 28.3042 25.3317 28.3072C25.2599 28.4728 25.1931 28.6409 25.1312 28.8113C25.1313 28.813 25.1313 28.8148 25.1312 28.8165C25.1146 28.8629 25.0984 28.9093 25.0827 28.9561C25.0767 28.9729 25.0708 28.9898 25.0653 29.007C25.0511 29.0489 25.0379 29.0912 25.0258 29.1339C25.0187 29.1556 25.012 29.1777 25.0053 29.1994C24.9927 29.2394 24.9804 29.2798 24.9686 29.3202L24.9473 29.3951C24.9362 29.4325 24.9252 29.4726 24.9149 29.5115C24.9074 29.5392 24.9003 29.5665 24.8932 29.5942C24.8837 29.6316 24.8738 29.669 24.8648 29.7065C24.8557 29.7439 24.847 29.7813 24.8383 29.821C24.8296 29.8606 24.8186 29.9071 24.8091 29.9505H24.2458C24.1375 29.9482 24.0298 29.9665 23.929 30.0042C23.8282 30.0419 23.7364 30.0984 23.659 30.1702C23.5815 30.242 23.52 30.3278 23.4779 30.4225C23.4359 30.5172 23.4143 30.6189 23.4143 30.7216C23.4143 30.8243 23.4359 30.926 23.4779 31.0207C23.52 31.1154 23.5815 31.2011 23.659 31.273C23.7364 31.3448 23.8282 31.4012 23.929 31.439C24.0298 31.4767 24.1375 31.495 24.2458 31.4927H44.2106C44.319 31.495 44.4267 31.4767 44.5274 31.439C44.6282 31.4012 44.72 31.3448 44.7975 31.273C44.8749 31.2011 44.9365 31.1154 44.9785 31.0207C45.0205 30.926 45.0421 30.8243 45.0421 30.7216C45.0421 30.6189 45.0205 30.5172 44.9785 30.4225C44.9365 30.3278 44.8749 30.242 44.7975 30.1702C44.72 30.0984 44.6282 30.0419 44.5274 30.0042C44.4267 29.9665 44.319 29.9482 44.2106 29.9505L44.2035 29.9437Z" fill="#595653"/>
<path d="M67.5912 29.9437H67.0283C67.0283 29.9377 67.0256 29.9318 67.0244 29.9261L67.009 29.8573C66.9991 29.812 66.9884 29.7671 66.9774 29.7226C66.9727 29.7016 66.9675 29.6806 66.9624 29.6597C66.9478 29.6009 66.9324 29.5422 66.9166 29.4834L66.9119 29.4666C66.8945 29.4029 66.8763 29.3396 66.8574 29.2765L66.8384 29.2155C66.8254 29.172 66.8116 29.129 66.799 29.086C66.7915 29.0624 66.7836 29.0392 66.7761 29.016C66.7623 28.9744 66.748 28.9329 66.7334 28.8917C66.7259 28.87 66.718 28.8479 66.7105 28.8266C66.6921 28.775 66.6732 28.7237 66.6537 28.6728C66.6494 28.6619 66.6458 28.6515 66.6415 28.6406C66.6186 28.5807 66.5945 28.5212 66.57 28.4617C66.5613 28.44 66.5522 28.4187 66.5432 28.3974C66.5266 28.3599 66.51 28.3188 66.493 28.2798L66.4611 28.2076C66.4445 28.1702 66.4275 28.1328 66.4101 28.0953C66.3995 28.0721 66.3884 28.0486 66.3774 28.0254C66.3572 27.9823 66.3379 27.9397 66.3154 27.8974C66.3071 27.8813 66.2996 27.8648 66.2913 27.8483C66.2633 27.7926 66.2345 27.7361 66.2053 27.6822L66.1658 27.6122L66.1101 27.5108L66.0667 27.4359C66.0485 27.4045 66.0304 27.373 66.0118 27.3416C65.9972 27.3162 65.9822 27.2907 65.9672 27.2668C65.9467 27.2327 65.9278 27.1994 65.9053 27.1657L65.8484 27.0744C65.8216 27.0325 65.7947 26.9902 65.7671 26.9487C65.7497 26.9225 65.7324 26.8966 65.7146 26.8708C65.6968 26.845 65.6775 26.8154 65.6585 26.7881C65.6396 26.7608 65.6191 26.7335 65.6017 26.7065C65.5843 26.6796 65.5654 26.6553 65.5468 26.6317C65.5283 26.6081 65.5073 26.5767 65.4872 26.5493L65.4316 26.4745C65.3921 26.4247 65.3558 26.3749 65.3171 26.3248L65.263 26.2563C65.2401 26.2275 65.2164 26.199 65.1931 26.1706L65.141 26.1077C65.1169 26.0789 65.0925 26.0505 65.068 26.0217L65.0167 25.9625L64.9401 25.8757L64.8947 25.8256C64.8003 25.7219 64.7036 25.6197 64.6046 25.5202L64.5611 25.4764L64.4703 25.3877L64.4257 25.345C64.3942 25.3147 64.3626 25.2848 64.3306 25.2552L64.2978 25.2253C64.1861 25.1224 64.0712 25.0221 63.9544 24.9259L63.9224 24.8993C63.8864 24.8694 63.8501 24.8398 63.8135 24.8106L63.7772 24.7814C63.7377 24.7515 63.7018 24.7219 63.6635 24.6923L63.6441 24.6777C63.515 24.5789 63.3828 24.4828 63.2494 24.3903L63.2308 24.3772C63.1886 24.3484 63.1463 24.32 63.1037 24.2919L63.0757 24.2736C63.0323 24.2447 62.9884 24.2167 62.9446 24.1886L62.9371 24.1841C62.7919 24.0921 62.6438 24.0039 62.493 23.9195L62.4871 23.9158C62.4394 23.8892 62.3916 23.8634 62.3438 23.8376L62.3229 23.8263C62.0687 23.6904 61.8076 23.5656 61.5397 23.4521L61.5231 23.445C61.4525 23.415 61.3814 23.3862 61.3096 23.3578H62.7224C62.9525 23.3578 63.1392 23.1067 63.1392 22.7964C63.1392 22.4862 62.9525 22.2351 62.7224 22.2351H62.3016C62.3276 22.1722 62.3565 22.1011 62.3876 22.021C62.7855 21.786 63.4858 21.2852 64.1806 20.3653L64.1861 20.3582C64.2388 20.2894 64.2905 20.2181 64.3413 20.1445L64.3515 20.1299C64.402 20.0577 64.4526 19.9832 64.5023 19.9054L64.5157 19.8848C64.5394 19.8474 64.5631 19.81 64.5868 19.7725C64.5868 19.7725 64.5868 19.7695 64.5896 19.7677C64.614 19.7302 64.6381 19.6891 64.6622 19.649L64.6776 19.6232C64.6981 19.5888 64.719 19.5536 64.7392 19.5181C64.7431 19.5117 64.7471 19.5053 64.7506 19.4986C64.7739 19.4582 64.7972 19.417 64.8201 19.3755L64.8359 19.3466C64.8548 19.3122 64.8734 19.2774 64.8919 19.2422C64.8975 19.2325 64.903 19.2224 64.9081 19.2123C64.9302 19.17 64.9523 19.1273 64.9744 19.0839L64.9898 19.0536C65.0072 19.0184 65.025 18.9825 65.0423 18.9466L65.0613 18.9092C65.0826 18.865 65.1035 18.8201 65.1244 18.7748L65.1375 18.746C65.1548 18.7086 65.1718 18.6711 65.1888 18.6337L65.2089 18.5888C65.2287 18.5435 65.2484 18.4979 65.2673 18.4518C65.2709 18.4436 65.2744 18.435 65.2776 18.4268C65.2954 18.3845 65.3127 18.3414 65.3301 18.298L65.3498 18.2486C65.366 18.2074 65.3822 18.1659 65.398 18.1244L65.4098 18.0929C65.4284 18.0435 65.4466 17.993 65.4647 17.9432L65.4837 17.8901C65.4979 17.8504 65.5117 17.81 65.5255 17.7696C65.5306 17.7546 65.5358 17.7396 65.5405 17.7247C65.5579 17.673 65.5752 17.6203 65.5922 17.5675C65.5977 17.5492 65.6037 17.5301 65.6092 17.5128L65.6487 17.3897C65.6538 17.3718 65.6593 17.3523 65.6645 17.3362C65.6806 17.2819 65.6968 17.2266 65.7122 17.1708C65.7174 17.1532 65.7221 17.1352 65.7268 17.1173C65.7387 17.0742 65.7505 17.0312 65.762 16.9874C65.7671 16.9676 65.7722 16.9477 65.7777 16.9279C65.7924 16.8703 65.807 16.8123 65.8212 16.7535L65.833 16.7045C65.8441 16.6577 65.8551 16.6105 65.8658 16.563L65.88 16.4994C65.8934 16.4384 65.9068 16.3774 65.9195 16.3153C65.9222 16.3033 65.9246 16.2909 65.927 16.2778C65.938 16.2243 65.9487 16.1701 65.9589 16.1158C65.9633 16.0937 65.9672 16.0716 65.9716 16.0496C65.9818 15.9938 65.9917 15.9373 66.0016 15.8815C66.0035 15.8695 66.0059 15.8579 66.0079 15.8463C66.0189 15.7805 66.0297 15.7141 66.0403 15.6472C66.0438 15.6248 66.0474 15.6023 66.0505 15.5795C66.0588 15.5252 66.0667 15.4706 66.0746 15.4152L66.0817 15.3643C66.0912 15.2955 66.1003 15.2262 66.1089 15.1559C66.1117 15.1338 66.1141 15.1117 66.1168 15.0892C66.1237 15.0334 66.13 14.9772 66.1358 14.9208C66.1382 14.9006 66.1405 14.8808 66.1425 14.8606C66.1501 14.7882 66.1572 14.7153 66.1638 14.6417C66.1638 14.6211 66.1674 14.6005 66.1689 14.5795C66.1741 14.5204 66.1792 14.4609 66.1836 14.401C66.1836 14.3789 66.1871 14.3569 66.1887 14.3348C66.1942 14.2584 66.1993 14.1816 66.2041 14.1042C66.2041 14.0867 66.2041 14.0668 66.2068 14.0511C66.2104 13.9867 66.2139 13.922 66.2167 13.8569C66.2167 13.8333 66.2167 13.8097 66.2199 13.7861C66.223 13.7057 66.2262 13.6248 66.2286 13.5429C66.2286 13.5316 66.2286 13.52 66.2286 13.5084C66.2307 13.4356 66.2322 13.362 66.2333 13.2876C66.2333 13.2633 66.2333 13.239 66.2333 13.2147C66.2333 13.1348 66.2333 13.0545 66.2333 12.9737V12.9549C66.2333 12.8689 66.2333 12.7817 66.2333 12.693V12.6181C66.2333 12.5433 66.2301 12.4647 66.2282 12.3868V12.3445C66.2254 12.2547 66.2218 12.1638 66.2183 12.0725C66.2183 12.0489 66.2159 12.0249 66.2151 12.0014C66.2117 11.9245 66.2078 11.8472 66.2033 11.7693C66.2033 11.7502 66.2033 11.7319 66.2001 11.7113C66.1946 11.6178 66.1886 11.5235 66.182 11.4284L66.1772 11.3622C66.1713 11.2828 66.1654 11.2031 66.1587 11.1226C66.1587 11.0994 66.1551 11.0762 66.1532 11.053C66.1449 10.9557 66.1358 10.8573 66.1263 10.7585C66.1263 10.7398 66.1224 10.7211 66.1208 10.702C66.1125 10.6178 66.1034 10.5328 66.0943 10.4471C66.0916 10.4213 66.0888 10.3959 66.0857 10.37C66.0746 10.2682 66.0628 10.1661 66.0501 10.0624C66.0501 10.0497 66.0466 10.037 66.045 10.025C66.0337 9.93217 66.0217 9.83886 66.0091 9.74505C66.0051 9.71736 66.0016 9.68966 65.9976 9.66197C65.9829 9.55569 65.9678 9.44852 65.9522 9.34049C64.3732 -1.31572 53.1837 0.413656 53.1837 0.413656L53.5421 2.70328L46.7749 9.48083L47.0706 12.0979L49.6341 13.5949C49.7484 13.3195 49.8951 13.0573 50.0715 12.8131C51.7255 11.0044 54.9344 9.5845 55.853 9.28997C56.0369 9.23121 56.1415 9.20165 56.1415 9.20165C51.7476 14.593 52.2473 20.7695 52.4431 22.2418C52.2394 22.2792 52.0819 22.5124 52.0819 22.7968C52.0819 23.1067 52.2686 23.3582 52.4988 23.3582H53.9116C51.5619 24.2906 49.6968 26.0665 48.7234 28.2982C48.7222 28.3012 48.7209 28.3042 48.7194 28.3072C48.6476 28.4728 48.5808 28.6409 48.5189 28.8113C48.519 28.813 48.519 28.8148 48.5189 28.8165C48.5023 28.8629 48.4861 28.9093 48.4704 28.9561C48.4644 28.9729 48.4585 28.9898 48.453 29.007C48.4388 29.0489 48.4256 29.0912 48.4135 29.1339C48.4064 29.1556 48.3997 29.1777 48.393 29.1994C48.3803 29.2394 48.3681 29.2798 48.3563 29.3202L48.335 29.3951C48.3239 29.4325 48.3128 29.4726 48.3026 29.5115C48.2951 29.5392 48.288 29.5665 48.2809 29.5942C48.2714 29.6316 48.2615 29.669 48.2525 29.7065C48.2434 29.7439 48.2347 29.7813 48.226 29.821C48.2173 29.8606 48.2063 29.9071 48.1968 29.9505H47.6335C47.5252 29.9482 47.4175 29.9665 47.3167 30.0042C47.2159 30.0419 47.1241 30.0984 47.0466 30.1702C46.9692 30.242 46.9077 30.3278 46.8656 30.4225C46.8236 30.5172 46.802 30.6189 46.802 30.7216C46.802 30.8243 46.8236 30.926 46.8656 31.0207C46.9077 31.1154 46.9692 31.2011 47.0466 31.273C47.1241 31.3448 47.2159 31.4012 47.3167 31.439C47.4175 31.4767 47.5252 31.495 47.6335 31.4927H67.5983C67.7067 31.495 67.8144 31.4767 67.9151 31.439C68.0159 31.4012 68.1077 31.3448 68.1852 31.273C68.2626 31.2011 68.3242 31.1154 68.3662 31.0207C68.4082 30.926 68.4298 30.8243 68.4298 30.7216C68.4298 30.6189 68.4082 30.5172 68.3662 30.4225C68.3242 30.3278 68.2626 30.242 68.1852 30.1702C68.1077 30.0984 68.0159 30.0419 67.9151 30.0042C67.8144 29.9665 67.7067 29.9482 67.5983 29.9505L67.5912 29.9437Z" fill="#595653"/>
<path d="M90.9784 29.9437H90.4155C90.4155 29.9377 90.4128 29.9318 90.4116 29.9261L90.3962 29.8573C90.3863 29.812 90.3757 29.7671 90.3646 29.7226C90.3599 29.7016 90.3547 29.6806 90.3496 29.6597C90.335 29.6009 90.3196 29.5422 90.3038 29.4834L90.2991 29.4666C90.2817 29.4029 90.2635 29.3396 90.2446 29.2765L90.2256 29.2155C90.2126 29.172 90.1988 29.129 90.1862 29.086C90.1787 29.0624 90.1708 29.0392 90.1633 29.016C90.1495 28.9744 90.1352 28.9329 90.1206 28.8917C90.1131 28.87 90.1052 28.8479 90.0977 28.8266C90.0793 28.775 90.0604 28.7237 90.0409 28.6728C90.0366 28.6619 90.033 28.6515 90.0287 28.6406C90.0058 28.5807 89.9817 28.5212 89.9572 28.4617C89.9485 28.44 89.9395 28.4187 89.9304 28.3974C89.9138 28.3599 89.8972 28.3188 89.8802 28.2798L89.8483 28.2076C89.8317 28.1702 89.8147 28.1328 89.7973 28.0953C89.7867 28.0721 89.7756 28.0486 89.7646 28.0254C89.7444 27.9823 89.7251 27.9397 89.7026 27.8974C89.6943 27.8813 89.6868 27.8648 89.6785 27.8483C89.6505 27.7926 89.6217 27.7361 89.5925 27.6822L89.553 27.6122L89.4973 27.5108L89.4539 27.4359C89.4358 27.4045 89.4176 27.373 89.399 27.3416C89.3844 27.3162 89.3694 27.2907 89.3544 27.2668C89.3339 27.2327 89.315 27.1994 89.2925 27.1657L89.2356 27.0744C89.2088 27.0325 89.1819 26.9902 89.1543 26.9487C89.1369 26.9225 89.1196 26.8966 89.1018 26.8708C89.084 26.845 89.0647 26.8154 89.0457 26.7881C89.0268 26.7608 89.0063 26.7335 88.9889 26.7065C88.9715 26.6796 88.9526 26.6553 88.934 26.6317C88.9155 26.6081 88.8946 26.5767 88.8744 26.5493L88.8188 26.4745C88.7793 26.4247 88.743 26.3749 88.7043 26.3248L88.6502 26.2563C88.6273 26.2275 88.6036 26.199 88.5803 26.1706L88.5282 26.1077C88.5041 26.0789 88.4797 26.0505 88.4552 26.0217L88.4039 25.9625L88.3273 25.8757L88.2819 25.8256C88.1876 25.7219 88.0908 25.6197 87.9918 25.5202L87.9483 25.4764L87.8575 25.3877L87.8129 25.345C87.7814 25.3147 87.7498 25.2848 87.7178 25.2552L87.685 25.2253C87.5733 25.1224 87.4585 25.0221 87.3416 24.9259L87.3096 24.8993C87.2736 24.8694 87.2373 24.8398 87.2007 24.8106L87.1644 24.7814C87.1249 24.7515 87.089 24.7219 87.0507 24.6923L87.0313 24.6777C86.9023 24.5789 86.77 24.4828 86.6366 24.3903L86.618 24.3772C86.5758 24.3484 86.5336 24.32 86.4909 24.2919L86.4629 24.2736C86.4195 24.2447 86.3757 24.2167 86.3318 24.1886L86.3243 24.1841C86.1791 24.0921 86.031 24.0039 85.8802 23.9195L85.8743 23.9158C85.8266 23.8892 85.7788 23.8634 85.731 23.8376L85.7101 23.8263C85.4559 23.6904 85.1948 23.5656 84.9269 23.4521L84.9103 23.445C84.8397 23.415 84.7686 23.3862 84.6968 23.3578H86.1096C86.3397 23.3578 86.5265 23.1067 86.5265 22.7964C86.5265 22.4862 86.3397 22.2351 86.1096 22.2351H85.6888C85.7148 22.1722 85.7437 22.1011 85.7748 22.021C86.1728 21.786 86.873 21.2852 87.5678 20.3653L87.5733 20.3582C87.626 20.2894 87.6777 20.2181 87.7285 20.1445L87.7387 20.1299C87.7893 20.0577 87.8398 19.9832 87.8895 19.9054L87.9029 19.8848C87.9266 19.8474 87.9503 19.81 87.974 19.7725C87.974 19.7725 87.974 19.7695 87.9768 19.7677C88.0012 19.7302 88.0253 19.6891 88.0494 19.649L88.0648 19.6232C88.0853 19.5888 88.1062 19.5536 88.1264 19.5181C88.1303 19.5117 88.1343 19.5053 88.1378 19.4986C88.1611 19.4582 88.1844 19.417 88.2073 19.3755L88.2231 19.3466C88.242 19.3122 88.2606 19.2774 88.2791 19.2422C88.2847 19.2325 88.2902 19.2224 88.2953 19.2123C88.3174 19.17 88.3395 19.1273 88.3616 19.0839L88.377 19.0536C88.3944 19.0184 88.4122 18.9825 88.4295 18.9466L88.4485 18.9092C88.4698 18.865 88.4907 18.8201 88.5116 18.7748L88.5247 18.746C88.542 18.7086 88.559 18.6711 88.576 18.6337L88.5961 18.5888C88.6159 18.5435 88.6356 18.4979 88.6545 18.4518C88.6581 18.4436 88.6616 18.435 88.6648 18.4268C88.6826 18.3845 88.6999 18.3414 88.7173 18.298L88.737 18.2486C88.7532 18.2074 88.7694 18.1659 88.7852 18.1244L88.7971 18.0929C88.8156 18.0435 88.8338 17.993 88.8519 17.9432L88.8709 17.8901C88.8851 17.8504 88.8989 17.81 88.9127 17.7696C88.9178 17.7546 88.923 17.7396 88.9277 17.7247C88.9451 17.673 88.9625 17.6203 88.9794 17.5675C88.985 17.5492 88.9909 17.5301 88.9964 17.5128L89.0359 17.3897C89.041 17.3718 89.0465 17.3523 89.0517 17.3362C89.0678 17.2819 89.084 17.2266 89.0994 17.1708C89.1046 17.1532 89.1093 17.1352 89.114 17.1173C89.1259 17.0742 89.1377 17.0312 89.1492 16.9874C89.1543 16.9676 89.1594 16.9477 89.165 16.9279C89.1796 16.8703 89.1942 16.8123 89.2084 16.7535L89.2202 16.7045C89.2313 16.6577 89.2423 16.6105 89.253 16.563L89.2672 16.4994C89.2806 16.4384 89.294 16.3774 89.3067 16.3153C89.3094 16.3033 89.3118 16.2909 89.3142 16.2778C89.3252 16.2243 89.3359 16.1701 89.3461 16.1158C89.3505 16.0937 89.3544 16.0716 89.3588 16.0496C89.369 15.9938 89.3789 15.9373 89.3888 15.8815C89.3908 15.8695 89.3931 15.8579 89.3951 15.8463C89.4061 15.7805 89.4169 15.7141 89.4275 15.6472C89.431 15.6248 89.4346 15.6023 89.4377 15.5795C89.446 15.5252 89.4539 15.4706 89.4618 15.4152L89.4689 15.3643C89.4784 15.2955 89.4875 15.2262 89.4962 15.1559C89.4989 15.1338 89.5013 15.1117 89.504 15.0892C89.5109 15.0334 89.5172 14.9772 89.523 14.9208C89.5254 14.9006 89.5277 14.8808 89.5297 14.8606C89.5373 14.7882 89.5444 14.7153 89.551 14.6417C89.551 14.6211 89.5546 14.6005 89.5562 14.5795C89.5613 14.5204 89.5664 14.4609 89.5708 14.401C89.5708 14.3789 89.5743 14.3569 89.5759 14.3348C89.5814 14.2584 89.5865 14.1816 89.5913 14.1042C89.5913 14.0867 89.5913 14.0668 89.594 14.0511C89.5976 13.9867 89.6012 13.922 89.6039 13.8569C89.6039 13.8333 89.6039 13.8097 89.6071 13.7861C89.6102 13.7057 89.6134 13.6248 89.6158 13.5429C89.6158 13.5316 89.6158 13.52 89.6158 13.5084C89.6179 13.4356 89.6194 13.362 89.6205 13.2876C89.6205 13.2633 89.6205 13.239 89.6205 13.2147C89.6205 13.1348 89.6205 13.0545 89.6205 12.9737V12.9549C89.6205 12.8689 89.6205 12.7817 89.6205 12.693V12.6181C89.6205 12.5433 89.6173 12.4647 89.6154 12.3868V12.3445C89.6126 12.2547 89.6091 12.1638 89.6055 12.0725C89.6055 12.0489 89.6031 12.0249 89.6023 12.0014C89.5989 11.9245 89.595 11.8472 89.5905 11.7693C89.5905 11.7502 89.5905 11.7319 89.5873 11.7113C89.5818 11.6178 89.5758 11.5235 89.5692 11.4284L89.5644 11.3622C89.5585 11.2828 89.5526 11.2031 89.5459 11.1226C89.5459 11.0994 89.5423 11.0762 89.5404 11.053C89.5321 10.9557 89.523 10.8573 89.5135 10.7585C89.5135 10.7398 89.5096 10.7211 89.508 10.702C89.4997 10.6178 89.4906 10.5328 89.4815 10.4471C89.4788 10.4213 89.476 10.3959 89.4729 10.37C89.4618 10.2682 89.45 10.1661 89.4373 10.0624C89.4373 10.0497 89.4338 10.037 89.4322 10.025C89.4209 9.93217 89.4089 9.83886 89.3963 9.74505C89.3923 9.71736 89.3888 9.68966 89.3848 9.66197C89.3701 9.55569 89.355 9.44852 89.3394 9.34049C87.7604 -1.31572 76.5709 0.413656 76.5709 0.413656L76.9293 2.70328L70.1621 9.48083L70.4578 12.0979L73.0213 13.5949C73.1356 13.3195 73.2823 13.0573 73.4587 12.8131C75.1127 11.0044 78.3216 9.5845 79.2402 9.28997C79.4241 9.23121 79.5287 9.20165 79.5287 9.20165C75.1348 14.593 75.6345 20.7695 75.8303 22.2418C75.6266 22.2792 75.4691 22.5124 75.4691 22.7968C75.4691 23.1067 75.6558 23.3582 75.886 23.3582H77.2988C74.9491 24.2906 73.084 26.0665 72.1106 28.2982C72.1094 28.3012 72.1081 28.3042 72.1066 28.3072C72.0348 28.4728 71.968 28.6409 71.9061 28.8113C71.9062 28.813 71.9062 28.8148 71.9061 28.8165C71.8895 28.8629 71.8734 28.9093 71.8576 28.9561C71.8516 28.9729 71.8457 28.9898 71.8402 29.007C71.826 29.0489 71.8128 29.0912 71.8007 29.1339C71.7936 29.1556 71.7869 29.1777 71.7802 29.1994C71.7676 29.2394 71.7553 29.2798 71.7435 29.3202L71.7222 29.3951C71.7111 29.4325 71.7001 29.4726 71.6898 29.5115C71.6823 29.5392 71.6752 29.5665 71.6681 29.5942C71.6586 29.6316 71.6487 29.669 71.6397 29.7065C71.6306 29.7439 71.6219 29.7813 71.6132 29.821C71.6045 29.8606 71.5935 29.9071 71.584 29.9505H71.0207C70.9124 29.9482 70.8047 29.9665 70.7039 30.0042C70.6031 30.0419 70.5113 30.0984 70.4339 30.1702C70.3564 30.242 70.2949 30.3278 70.2528 30.4225C70.2108 30.5172 70.1892 30.6189 70.1892 30.7216C70.1892 30.8243 70.2108 30.926 70.2528 31.0207C70.2949 31.1154 70.3564 31.2011 70.4339 31.273C70.5113 31.3448 70.6031 31.4012 70.7039 31.439C70.8047 31.4767 70.9124 31.495 71.0207 31.4927H90.9855C91.0939 31.495 91.2016 31.4767 91.3023 31.439C91.4031 31.4012 91.4949 31.3448 91.5724 31.273C91.6498 31.2011 91.7114 31.1154 91.7534 31.0207C91.7954 30.926 91.817 30.8243 91.817 30.7216C91.817 30.6189 91.7954 30.5172 91.7534 30.4225C91.7114 30.3278 91.6498 30.242 91.5724 30.1702C91.4949 30.0984 91.4031 30.0419 91.3023 30.0042C91.2016 29.9665 91.0939 29.9482 90.9855 29.9505L90.9784 29.9437Z" fill="#595653"/>
</svg>
